<svg version="1.1" id="Layer_1" xmlns="http://www.w3.org/2000/svg" xmlns:xlink="http://www.w3.org/1999/xlink" x="0px" y="0px"
	 width="100%" viewBox="0 0 512 512" enable-background="new 0 0 512 512" xml:space="preserve">
<path fill="#000000" opacity="1.000000" stroke="none" 
	d="
M513.000000,79.531418 
	C508.208710,97.952888 497.952271,111.323914 480.170929,117.844513 
	C460.721375,124.976845 442.943909,121.245079 427.170410,108.119331 
	C424.293945,105.725746 422.445862,105.094688 419.058258,107.269592 
	C405.103302,116.228882 390.917786,124.828827 376.829712,133.581268 
	C374.756653,134.869186 374.158905,136.462158 374.930084,139.063522 
	C379.633606,154.929703 377.627533,170.088928 368.394409,183.767380 
	C359.061340,197.593964 345.772278,205.282745 328.924774,206.374725 
	C312.130157,207.463272 297.856964,201.995132 286.543854,189.519531 
	C278.490845,180.638992 274.156708,170.092667 273.613037,157.995438 
	C273.249756,149.913010 273.947144,142.036316 277.228699,134.581650 
	C278.257874,132.243652 277.608002,131.070572 275.709747,129.651398 
	C259.239655,117.337891 242.829529,104.943939 226.442917,92.519363 
	C224.427979,90.991600 222.945541,91.428833 221.153748,92.902718 
	C211.387390,100.936142 200.002487,104.545944 187.497360,104.260300 
	C180.536392,104.101295 173.591339,102.987534 167.338760,99.559357 
	C164.413712,97.955605 162.386475,98.122810 160.116623,100.877319 
	C147.154724,116.606911 134.052780,132.221481 120.948654,147.833344 
	C112.848061,157.484131 104.777603,167.165359 96.442162,176.611023 
	C93.706673,179.710846 93.252876,181.845337 95.659050,185.631989 
	C111.860634,211.128662 104.541351,243.942093 78.605743,259.204926 
	C53.648224,273.892212 20.697466,265.461182 6.698146,239.770569 
	C4.582606,235.888275 3.187373,231.613480 1.229478,227.260117 
	C1.000000,218.312439 1.000000,209.624863 1.294314,200.306290 
	C2.246024,198.544739 3.104193,197.484802 3.530429,196.272964 
	C9.120799,180.378662 20.439667,170.270874 36.067654,165.089294 
	C48.967609,160.812195 61.900246,161.627304 74.389084,167.262634 
	C76.288979,168.119919 78.042839,168.916061 79.745880,166.886734 
	C85.179817,160.411682 90.680679,153.992752 96.105118,147.509827 
	C104.180305,137.858948 112.198792,128.160599 120.266487,118.503418 
	C128.437729,108.722252 136.446457,98.794258 144.929840,89.290741 
	C148.007599,85.842880 147.238541,83.583588 145.064819,80.294769 
	C129.463058,56.689537 136.120438,21.968407 162.293716,7.186330 
	C166.151520,5.007533 171.027618,4.775816 174.000000,1.000000 
	C183.020889,1.000000 192.041794,1.000000 201.785355,1.228860 
	C204.171875,2.178630 205.823029,2.930658 207.501526,3.615652 
	C224.751724,10.655461 235.610123,23.148918 239.414429,41.455639 
	C241.808533,52.976357 240.417236,64.214920 235.671432,75.226768 
	C244.108643,81.645813 252.376114,88.008484 260.722748,94.265572 
	C269.204468,100.623917 277.899841,106.706413 286.214386,113.273430 
	C289.032104,115.498924 290.781342,115.387848 293.478607,113.334412 
	C313.930145,97.764603 341.555481,99.073463 360.612122,116.485664 
	C362.840363,118.521629 364.502625,118.743851 367.126160,117.060631 
	C380.256561,108.636314 393.322418,100.073914 406.848724,92.324158 
	C411.721558,89.532326 412.771759,87.028114 411.542206,81.796066 
	C406.425507,60.023472 412.636932,41.813530 430.074890,27.763206 
	C446.139832,14.819194 473.390320,14.033478 490.516998,25.644337 
	C502.174347,33.547279 509.401062,44.508034 513.000000,58.000000 
	C513.000000,65.020950 513.000000,72.041893 513.000000,79.531418 
M357.445251,147.067368 
	C356.962311,145.656097 356.489075,144.241425 355.994843,142.834122 
	C351.681610,130.552689 337.008453,120.467758 324.261597,121.400574 
	C299.436005,123.217300 285.073425,148.145096 295.845459,169.796371 
	C302.013123,182.193008 318.861633,190.427505 331.324738,187.322403 
	C348.373505,183.074799 361.397675,167.627563 357.445251,147.067368 
M440.595947,44.152798 
	C427.073792,55.433304 424.130646,74.678909 435.476044,89.044319 
	C447.596497,104.391129 467.397308,108.252563 484.074097,93.517136 
	C496.510132,82.528786 499.415222,63.806503 487.689606,48.940926 
	C475.944427,34.050598 455.069366,31.985695 440.595947,44.152798 
M29.797602,190.294220 
	C15.165530,203.162537 15.168277,228.108429 32.915096,240.841431 
	C43.315216,248.303284 56.283661,250.534195 69.991646,241.943726 
	C79.541840,235.958878 87.689232,220.865921 84.735619,208.494720 
	C81.808113,196.232880 74.905533,187.758926 63.123199,183.348511 
	C50.893261,178.770554 40.064018,181.636276 29.797602,190.294220 
M180.349854,84.149460 
	C186.419464,86.230919 192.346237,85.199158 198.391922,83.721001 
	C213.653320,79.989616 225.116943,60.171883 221.148407,44.978756 
	C217.329666,30.359028 203.395828,17.631041 186.001572,19.427202 
	C167.673874,21.319752 154.987778,35.387909 155.645782,53.344433 
	C156.163101,67.461884 164.617966,79.024033 180.349854,84.149460 
z"/>
<path fill="#000000" opacity="1.000000" stroke="none" 
	d="
M413.468658,513.000000 
	C410.101685,508.300934 409.571136,503.188171 409.578461,497.730133 
	C409.683899,419.100159 409.937408,340.468262 409.445435,261.841248 
	C409.325500,242.676498 421.162628,229.193878 441.057098,230.468704 
	C455.491211,231.393661 470.037964,230.910431 484.523651,230.579987 
	C498.063202,230.271149 507.475586,235.843613 512.819519,248.712036 
	C513.000000,336.894135 513.000000,424.788239 513.000000,513.000000 
	C479.979797,513.000000 446.958557,513.000000 413.468658,513.000000 
M428.334076,471.499908 
	C428.335907,477.330872 428.575684,483.174683 428.261108,488.988525 
	C428.027679,493.302429 429.360199,494.802948 433.853119,494.747009 
	C452.176697,494.518738 470.505737,494.547791 488.830383,494.727448 
	C493.065063,494.768951 494.728394,493.614044 494.722565,489.118378 
	C494.623016,412.314178 494.666504,335.509796 494.642853,258.705475 
	C494.640961,252.589157 491.963928,249.495239 486.021759,249.428284 
	C469.696716,249.244324 453.367798,249.291061 437.041595,249.408859 
	C433.004150,249.437973 430.307495,251.567871 429.073486,255.672119 
	C428.277527,258.319550 428.348083,260.933594 428.347382,263.578033 
	C428.329590,332.552002 428.333710,401.525940 428.334076,471.499908 
z"/>
<path fill="#000000" opacity="1.000000" stroke="none" 
	d="
M140.468658,513.000000 
	C137.217117,508.457123 136.563812,503.549438 136.572357,498.237030 
	C136.691895,423.949158 136.793732,349.660583 136.552597,275.373322 
	C136.503204,260.154358 148.348007,247.140564 164.529541,247.562775 
	C180.675385,247.984055 196.845169,247.891541 212.996323,247.589249 
	C228.242538,247.303879 240.651062,258.914062 240.550766,274.879974 
	C240.074707,350.664093 240.326935,426.452942 240.396912,502.240021 
	C240.400406,506.027802 240.090088,509.502197 237.148499,512.663818 
	C204.979111,513.000000 172.958206,513.000000 140.468658,513.000000 
M213.787781,266.398376 
	C197.967743,266.389038 182.147659,266.357849 166.327667,266.379883 
	C158.691467,266.390533 155.381241,269.582886 155.376831,277.298248 
	C155.336304,348.073914 155.380295,418.849579 155.276352,489.625092 
	C155.270462,493.637482 156.594833,494.758240 160.476181,494.722870 
	C178.626541,494.557678 196.779266,494.653809 214.931137,494.645660 
	C221.629868,494.642670 221.647827,494.629059 221.648193,488.129120 
	C221.652115,417.686523 221.599365,347.243835 221.747025,276.801544 
	C221.758652,271.257782 219.946854,267.903625 213.787781,266.398376 
z"/>
<path fill="#000000" opacity="1.000000" stroke="none" 
	d="
M277.468658,513.000000 
	C273.689148,509.417725 273.593750,505.063477 273.599731,500.490326 
	C273.676361,442.008118 273.916748,383.523682 273.462036,325.044922 
	C273.350281,310.671143 284.998108,299.033936 299.520691,298.737793 
	C316.508453,298.391388 333.511597,298.462494 350.502686,298.715424 
	C366.420013,298.952362 377.320953,310.196198 377.332001,326.054626 
	C377.372925,384.703522 377.320709,443.352509 377.411377,502.001312 
	C377.417389,505.888458 376.130737,509.125366 374.147247,512.662109 
	C341.979095,513.000000 309.958221,513.000000 277.468658,513.000000 
M292.337677,455.499939 
	C292.340240,466.989899 292.427490,478.480865 292.292725,489.969208 
	C292.253326,493.326935 293.240021,494.731964 296.823914,494.707855 
	C315.806458,494.580200 334.790741,494.577759 353.773285,494.704590 
	C357.467133,494.729279 358.707489,493.439331 358.702240,489.764282 
	C358.625366,435.811615 358.680450,381.858765 358.623199,327.906036 
	C358.615662,320.809479 355.241394,317.443542 348.219940,317.391693 
	C333.067322,317.279755 317.912384,317.248230 302.760406,317.395020 
	C295.106567,317.469116 292.352478,320.503754 292.350616,328.110504 
	C292.340393,370.240295 292.341003,412.370117 292.337677,455.499939 
z"/>
<path fill="#000000" opacity="1.000000" stroke="none" 
	d="
M0.999998,384.468658 
	C2.925148,381.319672 4.701541,378.515869 6.803670,375.982391 
	C12.827232,368.722778 21.177086,366.819855 30.004292,366.706604 
	C44.979885,366.514404 59.964733,366.412354 74.936554,366.718872 
	C93.177185,367.092316 104.587761,377.684753 104.424599,396.665619 
	C104.128479,431.112640 104.287796,465.564270 104.419601,500.013367 
	C104.436798,504.506165 103.687637,508.559326 101.123825,512.649902 
	C67.730461,513.000000 34.460918,513.000000 1.000000,513.000000 
	C1.000000,470.312622 1.000000,427.624969 0.999998,384.468658 
M24.498049,386.549683 
	C21.308229,388.124481 19.293102,390.275604 19.303953,394.235931 
	C19.391607,426.227844 19.379726,458.220123 19.309170,490.212097 
	C19.302279,493.336761 20.202730,494.715637 23.565029,494.697083 
	C42.893021,494.590576 62.222031,494.606689 81.550308,494.681244 
	C84.541687,494.692749 85.688782,493.609375 85.682762,490.586212 
	C85.619720,458.927490 85.689819,427.268402 85.599297,395.609833 
	C85.581245,389.296967 82.535614,386.407532 76.312546,386.393188 
	C59.317375,386.354065 42.321964,386.419128 24.498049,386.549683 
z"/>
</svg>