<svg version="1.1" id="Layer_1" xmlns="http://www.w3.org/2000/svg" xmlns:xlink="http://www.w3.org/1999/xlink" x="0px" y="0px"
	 width="100%" viewBox="0 0 512 512" enable-background="new 0 0 512 512" xml:space="preserve">
<path fill="#000000" opacity="1.000000" stroke="none" 
	d="
M513.000000,261.000000 
	C513.000000,299.687561 513.000000,338.375122 512.648193,377.618164 
	C509.020294,384.426666 502.856903,383.890015 497.000000,384.188843 
	C497.000000,409.390991 497.000336,434.196747 496.999115,459.002533 
	C496.999054,460.335358 497.238281,461.727570 496.941010,462.992188 
	C492.102631,483.574707 476.640503,495.844299 456.283478,495.878479 
	C317.995026,496.110809 179.705933,496.055145 41.417259,495.894135 
	C30.489632,495.881409 20.601994,492.076172 12.508028,484.118103 
	C6.967608,478.670746 3.985846,471.880951 1.000000,465.000000 
	C1.000000,346.645782 1.000000,228.291550 1.358753,109.364105 
	C2.149178,107.581085 2.557498,106.362343 3.016070,105.162811 
	C8.807413,90.013756 23.118610,79.058990 40.160175,79.025299 
	C80.140144,78.946243 120.120834,79.096390 160.100082,78.908844 
	C167.083603,78.876083 174.241882,78.421227 181.011276,76.841110 
	C212.950378,69.385834 244.777008,61.449593 276.654297,53.728382 
	C297.124786,48.770096 317.617432,43.903343 338.093201,38.966751 
	C365.914459,32.259205 393.792114,25.770113 421.512848,18.669195 
	C431.389008,16.139318 445.012207,23.191042 447.877136,32.773006 
	C451.733948,45.672562 454.876312,58.800056 457.891144,71.929420 
	C458.970215,76.628716 460.284821,79.350426 465.827179,80.179970 
	C482.275757,82.641891 496.933868,98.997368 496.968842,115.866951 
	C497.060974,160.344666 497.000000,204.822678 497.000000,249.300568 
	C497.000000,251.088196 497.000000,252.875824 497.000000,255.107300 
	C503.592285,254.379425 509.520569,254.683853 513.000000,261.000000 
M138.500000,479.000000 
	C243.971481,479.000000 349.442993,479.036377 454.914368,478.937195 
	C464.258514,478.928406 472.778168,476.002472 476.866364,466.742554 
	C479.076416,461.736694 480.699524,456.041626 480.818024,450.618835 
	C481.269135,429.967499 481.000000,409.300446 481.000000,388.639252 
	C481.000000,387.195282 481.000000,385.751312 481.000000,384.000000 
	C477.060638,384.000000 473.595703,384.000000 470.130768,384.000000 
	C435.473297,384.000000 400.815826,383.992310 366.158356,384.005920 
	C358.443207,384.008942 352.704376,379.335663 352.805756,371.431152 
	C353.254578,336.446198 352.999664,301.452240 353.000275,266.461517 
	C353.000397,258.947662 357.007233,255.003067 364.674469,255.002090 
	C401.664642,254.997452 438.654846,255.000000 475.645020,255.000000 
	C477.395447,255.000000 479.145874,255.000000 481.000000,255.000000 
	C481.000000,242.165085 481.129974,230.007584 480.963318,217.854141 
	C480.797638,205.774445 480.028259,193.697403 480.084869,181.621826 
	C480.143890,169.021805 466.889526,159.895340 456.426208,159.906296 
	C321.128937,160.047852 185.831436,159.970901 50.534046,160.051056 
	C38.747063,160.058044 27.246864,159.480774 17.000000,152.013596 
	C17.000000,249.449875 16.986408,346.257080 17.042328,443.064240 
	C17.044971,447.641754 17.719149,452.215759 17.987093,456.796844 
	C18.849478,471.541199 30.725861,478.981659 43.025078,478.991547 
	C74.516701,479.016846 106.008354,479.000000 138.500000,479.000000 
M46.621014,109.002075 
	C63.938095,104.901176 81.255173,100.800278 98.572250,96.699379 
	C78.248482,96.004539 57.988689,95.533340 37.772266,96.263313 
	C30.813456,96.514572 24.628952,100.835396 20.960493,107.388580 
	C12.300396,122.858673 21.873682,142.954559 42.667133,142.964874 
	C179.816345,143.032898 316.965637,143.035385 454.114777,142.921417 
	C463.389130,142.913696 471.899872,144.826141 480.315247,150.015244 
	C479.475952,141.793427 475.888214,136.192612 469.541229,131.866333 
	C463.531311,127.769821 456.965637,127.986404 450.256805,127.963844 
	C443.535614,127.941254 440.837952,124.980072 441.000000,118.280762 
	C441.108002,113.815628 443.852539,111.409904 449.851471,110.546562 
	C446.900665,98.390030 443.957092,86.234932 440.998596,74.083458 
	C438.337860,63.155270 435.779083,52.200142 432.935120,41.319687 
	C431.728394,36.703007 428.120178,34.322212 424.390442,35.217384 
	C400.621368,40.922207 376.860748,46.662277 353.105743,52.425369 
	C337.323547,56.254219 321.563690,60.175327 305.778961,63.993526 
	C278.885864,70.498741 251.975143,76.930946 225.083038,83.440155 
	C202.420151,88.925682 179.773422,94.477913 157.119125,99.998940 
	C142.901917,103.463783 128.683945,106.925537 114.466316,110.388680 
	C114.501328,110.592453 114.536339,110.796227 114.571342,111.000000 
	C116.398399,111.000000 118.225449,111.000000 120.052498,111.000000 
	C218.706635,111.000000 317.360748,110.991585 416.014862,111.059860 
	C418.001434,111.061234 420.244965,111.524300 421.922180,112.522270 
	C425.903473,114.891167 425.718964,119.039848 424.650543,122.673134 
	C423.275848,127.347794 419.090027,128.010468 414.784882,128.010025 
	C290.634003,127.997604 166.483093,128.000839 42.332203,127.997086 
	C37.131954,127.996925 33.437538,125.596260 33.000832,121.986694 
	C32.209461,115.445686 33.752483,112.972321 39.853500,110.985291 
	C41.828140,110.342171 43.797874,109.684006 46.621014,109.002075 
M454.500000,272.000000 
	C426.072845,272.000000 397.645721,272.000000 369.286224,272.000000 
	C369.286224,303.975006 369.286224,335.378021 369.286224,366.714447 
	C411.975098,366.714447 454.377136,366.714447 496.713806,366.714447 
	C496.713806,335.025055 496.713806,303.622040 496.713806,272.000000 
	C482.785736,272.000000 469.142883,272.000000 454.500000,272.000000 
M475.055725,104.587395 
	C472.098694,102.176125 469.141663,99.764854 466.184631,97.353584 
	C465.748016,97.651146 465.311401,97.948708 464.874786,98.246277 
	C465.671295,102.417564 465.229950,107.591072 467.585297,110.500290 
	C470.376740,113.948112 475.578125,115.444771 479.735016,117.787086 
	C480.145752,117.559761 480.556488,117.332436 480.967224,117.105118 
	C479.181549,113.098930 477.395844,109.092751 475.055725,104.587395 
z"/>
<path fill="#FFFFFF" opacity="1.000000" stroke="none" 
	d="
M513.000000,260.531342 
	C509.520569,254.683853 503.592285,254.379425 497.000000,255.107300 
	C497.000000,252.875824 497.000000,251.088196 497.000000,249.300568 
	C497.000000,204.822678 497.060974,160.344666 496.968842,115.866951 
	C496.933868,98.997368 482.275757,82.641891 465.827179,80.179970 
	C460.284821,79.350426 458.970215,76.628716 457.891144,71.929420 
	C454.876312,58.800056 451.733948,45.672562 447.877136,32.773006 
	C445.012207,23.191042 431.389008,16.139318 421.512848,18.669195 
	C393.792114,25.770113 365.914459,32.259205 338.093201,38.966751 
	C317.617432,43.903343 297.124786,48.770096 276.654297,53.728382 
	C244.777008,61.449593 212.950378,69.385834 181.011276,76.841110 
	C174.241882,78.421227 167.083603,78.876083 160.100082,78.908844 
	C120.120834,79.096390 80.140144,78.946243 40.160175,79.025299 
	C23.118610,79.058990 8.807413,90.013756 3.016070,105.162811 
	C2.557498,106.362343 2.149178,107.581085 1.358753,108.895447 
	C1.000000,73.017891 1.000000,37.035786 1.000000,1.026840 
	C171.563934,1.026840 342.127899,1.026840 513.000000,1.026840 
	C513.000000,87.353981 513.000000,173.708328 513.000000,260.531342 
z"/>
<path fill="#FFFFFF" opacity="1.000000" stroke="none" 
	d="
M1.000000,465.468658 
	C3.985846,471.880951 6.967608,478.670746 12.508028,484.118103 
	C20.601994,492.076172 30.489632,495.881409 41.417259,495.894135 
	C179.705933,496.055145 317.995026,496.110809 456.283478,495.878479 
	C476.640503,495.844299 492.102631,483.574707 496.941010,462.992188 
	C497.238281,461.727570 496.999054,460.335358 496.999115,459.002533 
	C497.000336,434.196747 497.000000,409.390991 497.000000,384.188843 
	C502.856903,383.890015 509.020294,384.426666 512.648193,378.086823 
	C513.000000,422.971649 513.000000,467.943329 513.000000,512.953979 
	C342.333344,512.953979 171.666672,512.953979 1.000000,512.953979 
	C1.000000,497.251038 1.000000,481.594177 1.000000,465.468658 
z"/>
<path fill="#FFFFFF" opacity="1.000000" stroke="none" 
	d="
M138.000000,479.000000 
	C106.008354,479.000000 74.516701,479.016846 43.025078,478.991547 
	C30.725861,478.981659 18.849478,471.541199 17.987093,456.796844 
	C17.719149,452.215759 17.044971,447.641754 17.042328,443.064240 
	C16.986408,346.257080 17.000000,249.449875 17.000000,152.013596 
	C27.246864,159.480774 38.747063,160.058044 50.534046,160.051056 
	C185.831436,159.970901 321.128937,160.047852 456.426208,159.906296 
	C466.889526,159.895340 480.143890,169.021805 480.084869,181.621826 
	C480.028259,193.697403 480.797638,205.774445 480.963318,217.854141 
	C481.129974,230.007584 481.000000,242.165085 481.000000,255.000000 
	C479.145874,255.000000 477.395447,255.000000 475.645020,255.000000 
	C438.654846,255.000000 401.664642,254.997452 364.674469,255.002090 
	C357.007233,255.003067 353.000397,258.947662 353.000275,266.461517 
	C352.999664,301.452240 353.254578,336.446198 352.805756,371.431152 
	C352.704376,379.335663 358.443207,384.008942 366.158356,384.005920 
	C400.815826,383.992310 435.473297,384.000000 470.130768,384.000000 
	C473.595703,384.000000 477.060638,384.000000 481.000000,384.000000 
	C481.000000,385.751312 481.000000,387.195282 481.000000,388.639252 
	C481.000000,409.300446 481.269135,429.967499 480.818024,450.618835 
	C480.699524,456.041626 479.076416,461.736694 476.866364,466.742554 
	C472.778168,476.002472 464.258514,478.928406 454.914368,478.937195 
	C349.442993,479.036377 243.971481,479.000000 138.000000,479.000000 
z"/>
<path fill="#FFFFFF" opacity="1.000000" stroke="none" 
	d="
M46.195431,109.017395 
	C43.797874,109.684006 41.828140,110.342171 39.853500,110.985291 
	C33.752483,112.972321 32.209461,115.445686 33.000832,121.986694 
	C33.437538,125.596260 37.131954,127.996925 42.332203,127.997086 
	C166.483093,128.000839 290.634003,127.997604 414.784882,128.010025 
	C419.090027,128.010468 423.275848,127.347794 424.650543,122.673134 
	C425.718964,119.039848 425.903473,114.891167 421.922180,112.522270 
	C420.244965,111.524300 418.001434,111.061234 416.014862,111.059860 
	C317.360748,110.991585 218.706635,111.000000 120.052498,111.000000 
	C118.225449,111.000000 116.398399,111.000000 114.571342,111.000000 
	C114.536339,110.796227 114.501328,110.592453 114.466316,110.388680 
	C128.683945,106.925537 142.901917,103.463783 157.119125,99.998940 
	C179.773422,94.477913 202.420151,88.925682 225.083038,83.440155 
	C251.975143,76.930946 278.885864,70.498741 305.778961,63.993526 
	C321.563690,60.175327 337.323547,56.254219 353.105743,52.425369 
	C376.860748,46.662277 400.621368,40.922207 424.390442,35.217384 
	C428.120178,34.322212 431.728394,36.703007 432.935120,41.319687 
	C435.779083,52.200142 438.337860,63.155270 440.998596,74.083458 
	C443.957092,86.234932 446.900665,98.390030 449.851471,110.546562 
	C443.852539,111.409904 441.108002,113.815628 441.000000,118.280762 
	C440.837952,124.980072 443.535614,127.941254 450.256805,127.963844 
	C456.965637,127.986404 463.531311,127.769821 469.541229,131.866333 
	C475.888214,136.192612 479.475952,141.793427 480.315247,150.015244 
	C471.899872,144.826141 463.389130,142.913696 454.114777,142.921417 
	C316.965637,143.035385 179.816345,143.032898 42.667133,142.964874 
	C21.873682,142.954559 12.300396,122.858673 20.960493,107.388580 
	C24.628952,100.835396 30.813456,96.514572 37.772266,96.263313 
	C57.988689,95.533340 78.248482,96.004539 98.572250,96.699379 
	C81.255173,100.800278 63.938095,104.901176 46.195431,109.017395 
z"/>
<path fill="#FFFFFF" opacity="1.000000" stroke="none" 
	d="
M455.000000,272.000000 
	C469.142883,272.000000 482.785736,272.000000 496.713806,272.000000 
	C496.713806,303.622040 496.713806,335.025055 496.713806,366.714447 
	C454.377136,366.714447 411.975098,366.714447 369.286224,366.714447 
	C369.286224,335.378021 369.286224,303.975006 369.286224,272.000000 
	C397.645721,272.000000 426.072845,272.000000 455.000000,272.000000 
M414.983734,312.018036 
	C417.047241,311.667633 419.332001,311.765381 421.130249,310.877655 
	C425.449402,308.745331 425.840576,304.339447 424.736908,300.619965 
	C424.066437,298.360474 421.006287,295.427216 418.798767,295.226532 
	C401.873535,293.688080 389.295715,308.239624 393.650024,326.163391 
	C396.872223,339.427124 412.458984,347.291626 425.246246,342.419586 
	C435.590515,338.478424 442.710388,328.099945 440.753845,317.000397 
	C440.351471,314.717621 437.081085,311.744507 434.682129,311.242554 
	C428.461914,309.941010 426.156006,312.733307 423.825012,320.656219 
	C423.199615,322.781952 420.692261,325.093109 418.545471,325.808319 
	C416.683197,326.428772 413.627991,325.527374 411.947388,324.214111 
	C408.227478,321.307343 409.167908,317.331116 414.983734,312.018036 
z"/>
<path fill="#FFFFFF" opacity="1.000000" stroke="none" 
	d="
M475.332947,104.836975 
	C477.395844,109.092751 479.181549,113.098930 480.967224,117.105118 
	C480.556488,117.332436 480.145752,117.559761 479.735016,117.787086 
	C475.578125,115.444771 470.376740,113.948112 467.585297,110.500290 
	C465.229950,107.591072 465.671295,102.417564 464.874786,98.246277 
	C465.311401,97.948708 465.748016,97.651146 466.184631,97.353584 
	C469.141663,99.764854 472.098694,102.176125 475.332947,104.836975 
z"/>
<path fill="#000000" opacity="1.000000" stroke="none" 
	d="
M414.598022,312.136597 
	C409.167908,317.331116 408.227478,321.307343 411.947388,324.214111 
	C413.627991,325.527374 416.683197,326.428772 418.545471,325.808319 
	C420.692261,325.093109 423.199615,322.781952 423.825012,320.656219 
	C426.156006,312.733307 428.461914,309.941010 434.682129,311.242554 
	C437.081085,311.744507 440.351471,314.717621 440.753845,317.000397 
	C442.710388,328.099945 435.590515,338.478424 425.246246,342.419586 
	C412.458984,347.291626 396.872223,339.427124 393.650024,326.163391 
	C389.295715,308.239624 401.873535,293.688080 418.798767,295.226532 
	C421.006287,295.427216 424.066437,298.360474 424.736908,300.619965 
	C425.840576,304.339447 425.449402,308.745331 421.130249,310.877655 
	C419.332001,311.765381 417.047241,311.667633 414.598022,312.136597 
z"/>
</svg>