<?xml version="1.0" standalone="no"?>
<!DOCTYPE svg PUBLIC "-//W3C//DTD SVG 20010904//EN"
 "http://www.w3.org/TR/2001/REC-SVG-20010904/DTD/svg10.dtd">
<svg version="1.0" xmlns="http://www.w3.org/2000/svg"
 width="512.000000pt" height="512.000000pt" viewBox="0 0 512.000000 512.000000"
 preserveAspectRatio="xMidYMid meet">

<g transform="translate(0.000000,512.000000) scale(0.100000,-0.100000)"
fill="#000000" stroke="none">
<path d="M466 5100 c-123 -39 -227 -142 -264 -260 -14 -46 -17 -98 -17 -330 0
-389 -25 -364 367 -368 l278 -3 0 -325 0 -324 -130 0 c-147 0 -178 -9 -210
-63 -18 -29 -20 -51 -20 -217 0 -166 2 -188 20 -217 35 -59 59 -67 207 -71
l133 -4 0 -734 c0 -523 3 -740 11 -758 23 -51 103 -55 128 -7 8 13 11 257 11
760 l0 741 415 0 415 0 0 -77 c0 -102 18 -140 83 -172 43 -21 53 -22 86 -12
46 13 585 426 619 473 28 39 30 111 4 150 -16 25 -545 443 -592 468 -32 17
-96 14 -131 -6 -51 -30 -69 -76 -69 -171 l0 -83 -412 2 -413 3 -5 666 -5 666
-37 72 -36 71 1511 0 c1237 -1 1519 -3 1550 -14 55 -20 103 -61 134 -114 l28
-47 3 -271 3 -272 -78 -17 c-43 -9 -121 -37 -173 -62 -81 -39 -107 -59 -185
-137 -150 -151 -215 -306 -215 -514 0 -127 18 -208 70 -317 71 -148 193 -269
345 -341 71 -34 171 -64 212 -64 l23 0 0 -300 0 -300 -189 0 c-195 0 -244 -8
-261 -40 -16 -30 -12 -64 10 -88 21 -22 22 -22 415 -22 l395 0 0 -135 0 -135
-635 0 c-549 0 -640 -2 -665 -15 -35 -18 -39 -32 -43 -152 l-2 -93 -245 191
c-135 104 -245 194 -245 200 0 5 110 95 245 199 l245 190 5 -111 c6 -142 3
-139 167 -139 110 0 125 2 143 20 22 22 26 60 10 90 -13 24 -62 40 -121 40
l-49 0 0 78 c0 101 -18 139 -83 171 -43 21 -53 22 -87 12 -45 -13 -596 -437
-622 -479 -23 -35 -23 -109 0 -144 16 -25 544 -442 592 -468 32 -17 96 -14
131 6 51 30 69 76 69 171 l0 83 410 0 410 0 0 -325 0 -325 -1267 -1 c-956 0
-1276 -3 -1302 -12 -19 -7 -44 -25 -55 -40 -20 -27 -21 -44 -26 -310 -5 -267
-6 -284 -27 -323 -50 -94 -123 -139 -223 -139 -100 0 -173 45 -223 139 -21 40
-22 52 -27 458 -4 376 -7 419 -22 434 -27 27 -77 22 -105 -11 l-24 -27 3 -417
c3 -403 4 -418 26 -471 48 -119 140 -204 261 -240 65 -20 88 -20 1786 -18
l1720 3 67 32 c82 38 145 96 182 164 50 91 56 132 56 412 0 219 -3 264 -16
293 -31 66 -47 69 -356 72 l-278 3 0 325 0 324 138 0 c118 0 141 3 169 20 57
35 63 58 63 262 0 164 -2 186 -20 215 -36 59 -59 67 -212 71 l-138 4 0 299 0
299 23 0 c86 0 271 80 365 159 241 201 328 521 222 814 -53 144 -99 189 -159
156 -48 -27 -49 -59 -7 -148 50 -108 71 -224 57 -325 -28 -202 -143 -365 -317
-451 -157 -78 -314 -84 -476 -19 -168 68 -298 216 -343 391 -19 73 -19 222 0
293 39 148 164 303 296 367 165 81 351 84 518 8 65 -30 95 -31 121 -5 25 25
27 81 2 102 -35 31 -125 69 -213 90 l-89 21 0 256 c0 141 -5 275 -10 299 -28
119 -103 213 -218 269 l-76 38 -1725 2 c-1669 2 -1728 1 -1785 -17z m229 -158
c52 -26 89 -66 114 -122 19 -41 21 -65 21 -288 l0 -242 -247 2 -248 3 0 235
c0 203 2 241 18 282 21 54 97 128 149 146 48 16 147 8 193 -16z m1550 -1560
c116 -90 210 -168 210 -173 0 -5 -110 -95 -245 -200 l-245 -190 -5 111 c-4 96
-8 114 -24 126 -17 12 -125 14 -668 14 l-648 0 0 135 0 135 629 0 c648 0 681
2 701 40 6 10 10 65 10 121 l0 101 38 -28 c20 -16 132 -102 247 -192z m2535
-2785 c0 -270 -7 -304 -75 -372 -80 -81 48 -75 -1652 -75 l-1513 0 24 38 c55
82 59 108 64 385 l4 257 1574 0 1574 0 0 -233z"/>
<path d="M1290 4570 c-30 -30 -27 -83 6 -109 27 -21 32 -21 864 -21 832 0 837
0 864 21 33 26 36 79 6 109 -20 20 -33 20 -870 20 -837 0 -850 0 -870 -20z"/>
<path d="M1292 4087 c-31 -33 -29 -80 4 -106 27 -21 32 -21 864 -21 832 0 837
0 864 21 34 27 36 77 3 107 l-23 22 -845 0 -846 0 -21 -23z"/>
<path d="M4155 3985 l-25 -24 0 -229 c0 -217 1 -231 21 -256 l20 -26 160 0
c146 0 161 2 179 20 30 30 27 83 -6 109 -23 18 -41 21 -125 21 l-99 0 0 180
c0 179 0 181 -25 205 -13 14 -36 25 -50 25 -14 0 -37 -11 -50 -25z"/>
<path d="M1320 2463 c-52 -19 -68 -85 -30 -123 19 -19 33 -20 470 -20 437 0
451 1 470 20 27 27 26 81 -1 106 -20 18 -44 19 -458 21 -240 1 -443 -1 -451
-4z"/>
<path d="M1325 1983 c-55 -14 -75 -83 -35 -123 19 -19 33 -20 470 -20 437 0
451 1 470 20 27 27 26 81 -1 106 -20 18 -43 19 -453 21 -237 0 -440 -1 -451
-4z"/>
<path d="M1286 1478 c-21 -30 -20 -71 3 -99 l19 -24 602 0 602 0 19 24 c23 28
24 69 3 99 l-15 22 -609 0 -609 0 -15 -22z"/>
</g>
</svg>
