<?xml version="1.0" standalone="no"?>
<!DOCTYPE svg PUBLIC "-//W3C//DTD SVG 20010904//EN"
 "http://www.w3.org/TR/2001/REC-SVG-20010904/DTD/svg10.dtd">
<svg version="1.0" xmlns="http://www.w3.org/2000/svg"
 width="512.000000pt" height="512.000000pt" viewBox="0 0 512.000000 512.000000"
 preserveAspectRatio="xMidYMid meet">

<g transform="translate(0.000000,512.000000) scale(0.100000,-0.100000)"
fill="#000000" stroke="none">
<path d="M2026 4415 c-49 -17 -103 -68 -127 -120 -15 -32 -19 -64 -19 -157 l0
-118 -307 0 c-339 0 -354 -3 -416 -66 -60 -60 -62 -69 -65 -320 -4 -287 -9
-277 127 -282 l91 -4 2 -1216 c3 -1214 3 -1217 24 -1263 31 -66 78 -114 142
-146 l57 -28 1004 -3 c1122 -3 1066 -6 1159 67 34 27 59 59 78 98 l29 58 3
1217 2 1216 91 4 c133 5 129 -3 129 262 0 116 -4 226 -10 245 -16 58 -59 109
-113 136 l-51 25 -308 0 -308 0 0 118 c0 92 -4 126 -19 157 -23 51 -89 111
-138 124 -62 17 -1007 14 -1057 -4z m1027 -137 c41 -21 46 -39 47 -150 l0
-108 -540 0 -540 0 0 108 c0 112 5 129 45 150 29 16 958 16 988 0z m812 -423
c25 -24 25 -27 25 -195 l0 -170 -1330 0 -1330 0 0 170 c0 168 0 171 25 195
l24 25 1281 0 1281 0 24 -25z m-195 -1701 c0 -1331 5 -1236 -68 -1292 l-35
-27 -1007 0 -1007 0 -35 27 c-73 56 -68 -39 -68 1292 l0 1196 1110 0 1110 0 0
-1196z"/>
<path d="M1897 2862 c-16 -17 -17 -85 -17 -770 0 -739 0 -752 20 -772 29 -29
74 -26 99 6 21 26 21 33 21 761 0 737 -1 763 -34 785 -21 14 -73 8 -89 -10z"/>
<path d="M2506 2858 c-14 -20 -16 -109 -16 -768 l0 -747 23 -21 c30 -28 68
-28 95 1 l22 23 0 745 c0 835 4 789 -70 789 -29 0 -43 -6 -54 -22z"/>
<path d="M3134 2872 c-33 -22 -34 -48 -34 -785 0 -728 0 -735 21 -761 25 -32
70 -35 99 -6 20 20 20 33 20 773 0 718 -1 755 -18 770 -19 17 -68 22 -88 9z"/>
</g>
</svg>
